# xmcd
#
# Track frame offsets:
# 150
# 17053
# 34051
# 52214
# 67274
# 86642
# 102921
# 125810
# 143274
# 160383
# 177026
# 192842
# 209847
# 230677
# 249632
# 261453
# 279034
# 294460
#
# Disc length: 4157 seconds
#
# Revision: 1
# Processed by: cddbd v1.4PL0 Copyright (c) Steve Scherf et al.
# Submitted via: CedeCatalogueitor 2.5 http://usuarios.lycos.es/kakasboy
#
DISCID=15103b12
DTITLE=Kenny Rogers - After Dark
DYEAR=1900
DGENRE=
TTITLE0=Ain´t No Sunshine
TTITLE1=Buy Me A Rose
TTITLE2=Don´t Fall In Love With A Dreamer
TTITLE3=How Sweet It Is
TTITLE4=I Can´t Make Love Me
TTITLE5=I Don´t Need You
TTITLE6=I Will Rebember You
TTITLE7=Let It Be Me
TTITLE8=Love Don´t Live Here Anymore
TTITLE9=Lovings Arms
TTITLE10=Share Your Love With Me
TTITLE11=Since I Fell For You
TTITLE12=Small Drak Cloud
TTITLE13=The King Of Fools Makes...
TTITLE14=This Masquerade
TTITLE15=Three Times A Lady
TTITLE16=You Don´t Know Me
TTITLE17=You Looked So Beatifull
EXTD=
EXTT0=
EXTT1=
EXTT2=
EXTT3=
EXTT4=
EXTT5=
EXTT6=
EXTT7=
EXTT8=
EXTT9=
EXTT10=
EXTT11=
EXTT12=
EXTT13=
EXTT14=
EXTT15=
EXTT16=
EXTT17=
PLAYORDER=
